<svg xmlns="http://www.w3.org/2000/svg" xmlns:xlink="http://www.w3.org/1999/xlink" width="1000" zoomAndPan="magnify" viewBox="0 0 750 749.999995" height="1000" preserveAspectRatio="xMidYMid meet" version="1.0"><defs><g/><clipPath id="d271862f64"><path d="M 148.125 2 L 599 2 L 599 750 L 148.125 750 Z M 148.125 2 " clip-rule="nonzero"/></clipPath><clipPath id="a17592feb5"><rect x="0" width="371" y="0" height="239"/></clipPath></defs><g clip-path="url(#d271862f64)"><path fill="#000000" d="M 249.691406 749.539062 C 246.648438 749.179688 243.214844 748.074219 242.128906 747.113281 C 240.265625 745.453125 240.800781 742.621094 243.429688 740.246094 C 246.765625 737.234375 250.640625 736.214844 260.175781 735.859375 C 268.394531 735.542969 274.746094 736.136719 281.203125 737.820312 C 283.046875 738.300781 284.667969 738.574219 284.8125 738.433594 C 284.953125 738.289062 287.195312 729.945312 289.785156 719.886719 C 294.613281 701.171875 299.03125 685.730469 307.5 658.011719 C 332.199219 577.167969 347.820312 523.265625 353.476562 499.371094 C 354.324219 495.785156 356.347656 486.710938 357.96875 479.210938 C 359.585938 471.707031 361.589844 463.03125 362.421875 459.9375 C 363.25 456.839844 364.183594 451.917969 364.492188 449.007812 C 364.800781 446.09375 365.132812 443.632812 365.234375 443.527344 C 365.339844 443.425781 366.300781 443.164062 367.375 442.949219 L 369.324219 442.558594 L 368.925781 447.242188 C 368.558594 451.496094 368.820312 453.375 371.785156 467.644531 C 376.433594 490.03125 379.007812 501.699219 380.984375 509.324219 C 383.691406 519.785156 387.898438 540.828125 390.816406 558.5 C 392.285156 567.402344 395.09375 583.359375 397.050781 593.960938 C 401.476562 617.9375 408.671875 657.453125 411.894531 675.503906 C 413.226562 683.007812 415.640625 695.28125 417.246094 702.785156 C 420.152344 716.304688 425.710938 738.449219 426.363281 739.109375 C 426.554688 739.292969 429.308594 739.109375 432.488281 738.707031 C 435.671875 738.296875 443.082031 737.820312 448.953125 737.644531 C 463.238281 737.222656 471.464844 738.503906 473.414062 741.464844 C 474.214844 742.683594 474.152344 742.917969 472.542969 744.523438 C 471.582031 745.476562 469.753906 746.574219 468.476562 746.953125 C 464.941406 748.007812 444.660156 748.429688 437.519531 747.601562 C 425.65625 746.226562 422.140625 744.546875 420.835938 739.648438 C 414.332031 715.273438 410.820312 698.851562 404.472656 663.050781 C 401.988281 649.027344 398.359375 629.011719 396.402344 618.574219 C 391.484375 592.332031 387.265625 568.539062 385.777344 558.675781 C 384.214844 548.382812 378.769531 521.511719 375.746094 509.1875 C 374.503906 504.117188 371.785156 491.480469 369.710938 481.105469 C 367.378906 469.449219 365.777344 462.65625 365.511719 463.316406 C 365.273438 463.902344 363.578125 471.453125 361.753906 480.097656 C 354.203125 515.734375 341.640625 560.390625 311.058594 660.382812 C 299.800781 697.1875 288.117188 740.976562 289.246094 742.101562 C 290.058594 742.917969 289.390625 744.742188 287.9375 745.644531 C 286.507812 746.539062 275.875 748.417969 267.269531 749.304688 C 261.453125 749.894531 253.585938 750.007812 249.691406 749.539062 Z M 272.226562 745.144531 C 280.820312 743.949219 283.890625 743.273438 283.328125 742.707031 C 282.261719 741.640625 273.988281 739.855469 267.316406 739.257812 C 259.664062 738.570312 252.484375 739.164062 247.910156 740.863281 C 237.4375 744.75 254.0625 747.675781 272.226562 745.144531 Z M 468.226562 743.578125 C 469.683594 742.976562 469.667969 742.949219 467.335938 742.289062 C 462.324219 740.851562 452.789062 740.367188 442.558594 741.03125 C 430.320312 741.824219 428.292969 742.382812 434.125 743.332031 C 436.410156 743.703125 438.945312 744.121094 439.757812 744.25 C 442.742188 744.742188 466.785156 744.171875 468.226562 743.578125 Z M 182.808594 475.292969 C 181.574219 475.003906 179.742188 474.347656 178.734375 473.824219 C 176.03125 472.425781 171.753906 468.289062 170.542969 465.890625 C 169.042969 462.9375 168.449219 458.921875 169.351562 457.839844 C 170.253906 456.75 171.707031 456.703125 171.707031 457.765625 C 171.707031 459.703125 175.519531 465.992188 177.832031 467.871094 C 182.230469 471.441406 190.222656 474.75 194.496094 474.773438 C 195.5 474.773438 196.707031 475.027344 197.191406 475.332031 C 198.316406 476.042969 185.902344 476.011719 182.808594 475.269531 Z M 182.195312 457.148438 C 181.527344 456.0625 180.300781 444.320312 174.320312 381.664062 C 170.886719 345.632812 167.984375 316.058594 167.875 315.945312 C 167.761719 315.839844 166.46875 316.664062 165 317.785156 C 159.382812 322.070312 152.769531 320.867188 149.8125 315.015625 C 148.546875 312.53125 148.347656 311.335938 148.363281 306.414062 C 148.363281 299.488281 149.550781 294.65625 152.742188 288.136719 C 155.699219 282.105469 158.921875 279.058594 162.339844 279.058594 L 164.632812 279.058594 L 164.300781 276.242188 C 162.121094 257.800781 161.71875 247.023438 163.148438 245.59375 C 163.664062 245.082031 164.269531 244.660156 164.5 244.660156 C 164.734375 244.660156 170.117188 244.132812 176.46875 243.480469 C 182.820312 242.835938 236.585938 237.636719 295.949219 231.929688 C 397.144531 222.203125 520.050781 210.347656 554.144531 207.015625 C 562.421875 206.210938 569.429688 205.695312 569.714844 205.867188 C 569.996094 206.042969 570.226562 206.542969 570.226562 206.984375 C 570.226562 207.476562 570.660156 207.667969 571.355469 207.484375 C 572.109375 207.289062 572.605469 207.566406 572.84375 208.3125 C 573.097656 209.128906 583.007812 309.894531 584.578125 327.652344 C 584.726562 329.367188 585.046875 329.769531 586.5625 330.160156 C 587.550781 330.417969 589.625 331.886719 591.175781 333.433594 C 601.664062 343.925781 601.074219 363.3125 590.023438 370.996094 L 588.773438 371.871094 L 590.695312 391.140625 C 591.757812 401.738281 592.824219 412.078125 593.066406 414.113281 C 593.410156 417.015625 593.332031 417.871094 592.691406 418.097656 C 592.242188 418.257812 576.53125 419.863281 557.773438 421.667969 C 455.257812 431.511719 258.882812 450.296875 226.265625 453.386719 C 205.554688 455.34375 187.230469 457.101562 185.554688 457.292969 C 183.871094 457.480469 182.355469 457.414062 182.195312 457.148438 Z M 219.445312 449.863281 C 272.652344 444.777344 435.214844 429.164062 450.730469 427.652344 C 458.882812 426.855469 492.640625 423.632812 525.75 420.496094 C 558.859375 417.355469 586.542969 414.664062 587.277344 414.519531 C 588.382812 414.296875 588.613281 413.855469 588.613281 411.988281 C 588.613281 410.75 586.097656 383.597656 583.027344 351.65625 C 579.953125 319.71875 575.625 274.566406 573.40625 251.324219 C 569.917969 214.703125 569.253906 209.101562 568.472656 209.398438 C 567.972656 209.589844 555.289062 210.925781 540.285156 212.367188 C 503.273438 215.910156 324.105469 233.039062 239.90625 241.082031 C 202.234375 244.675781 170.105469 247.78125 168.511719 247.980469 L 165.609375 248.359375 L 165.972656 252.882812 C 166.175781 255.371094 170.480469 300.425781 175.542969 352.992188 C 180.609375 405.5625 184.753906 449.667969 184.753906 451.015625 C 184.753906 453.453125 184.753906 453.464844 186.679688 453.140625 C 187.742188 452.960938 202.484375 451.492188 219.445312 449.863281 Z M 593.191406 362.972656 C 595.066406 359.378906 595.667969 352.597656 594.542969 347.761719 C 593.601562 343.695312 590.800781 338.375 588.210938 335.707031 C 585.617188 333.035156 584.960938 333.066406 585.355469 335.84375 C 585.527344 337.0625 586.199219 343.800781 586.839844 350.816406 C 587.484375 357.832031 588.179688 364.890625 588.382812 366.507812 L 588.761719 369.457031 L 590.203125 367.695312 C 590.996094 366.726562 592.34375 364.605469 593.191406 362.972656 Z M 163.410156 315.085938 C 164.488281 314.351562 165.863281 313.082031 166.476562 312.261719 C 167.554688 310.804688 167.550781 310.441406 166.246094 296.695312 L 164.910156 282.617188 L 162.429688 282.617188 C 160.363281 282.617188 159.679688 282.9375 158.320312 284.542969 C 156.359375 286.863281 154.074219 291.683594 152.964844 295.867188 C 151.816406 300.1875 151.890625 308.675781 153.113281 311.730469 C 154.886719 316.152344 159.589844 317.683594 163.410156 315.085938 Z M 355.933594 222.570312 C 356.1875 222.164062 358.632812 218.898438 361.367188 215.308594 L 366.339844 208.785156 L 365.984375 200.832031 C 365.789062 196.457031 365.628906 191.613281 365.628906 190.0625 L 365.628906 187.246094 L 358.039062 187.246094 C 343.558594 187.183594 331.03125 184.289062 317.890625 177.945312 C 296.039062 167.382812 281.082031 152.351562 274.667969 134.488281 C 271.417969 125.4375 271.039062 122.660156 271.0625 108.289062 C 271.0625 96.898438 271.277344 93.972656 272.410156 88.285156 C 277.585938 62.339844 292.945312 39.167969 311.105469 29.898438 C 313.246094 28.804688 316.714844 26.546875 318.816406 24.882812 C 323.875 20.871094 331.703125 15.835938 337.003906 13.179688 C 352.007812 5.65625 373.796875 0.00390625 376.273438 2.988281 C 377.3125 4.238281 374.796875 5.316406 368.003906 6.535156 C 357.203125 8.464844 347.78125 11.628906 337.644531 16.71875 C 332.480469 19.3125 324.710938 23.929688 324.710938 24.402344 C 324.710938 24.519531 327.3125 23.667969 330.492188 22.507812 C 333.671875 21.351562 337.253906 20.042969 338.457031 19.609375 C 339.65625 19.175781 343.253906 18.257812 346.464844 17.570312 C 349.664062 16.878906 353.621094 15.824219 355.253906 15.230469 C 360.214844 13.40625 365.996094 12.332031 377.90625 11.03125 C 390.660156 9.632812 396.0625 9.632812 396.324219 11.03125 C 396.664062 12.804688 393.875 13.527344 381.996094 14.710938 C 375.445312 15.367188 369.8125 16.179688 369.484375 16.511719 C 369.085938 16.929688 369.09375 17.019531 369.484375 16.792969 C 370.546875 16.210938 379.921875 18.074219 385.480469 19.976562 C 391.878906 22.171875 402.132812 27.394531 408.074219 31.476562 C 424.484375 42.773438 435.640625 57.230469 441.746094 75.121094 C 445.351562 85.675781 446.414062 91.878906 446.433594 102.359375 C 446.433594 116.140625 444.605469 124.425781 438.78125 136.710938 C 432.371094 150.242188 422.027344 163.074219 411.3125 170.789062 C 401.414062 177.921875 386.292969 184.339844 375.398438 186.035156 C 372.789062 186.441406 370.421875 186.96875 370.136719 187.21875 C 369.851562 187.457031 369.816406 192.191406 370.0625 197.847656 L 370.5 208.035156 L 372.347656 209.609375 C 376.921875 213.492188 383.335938 219.996094 383.054688 220.457031 C 382.882812 220.730469 381.5 220.964844 379.976562 220.964844 C 377.441406 220.964844 376.945312 220.703125 374.011719 217.851562 L 370.800781 214.738281 L 371.167969 218.082031 L 371.535156 221.421875 L 369.613281 221.714844 C 367.214844 222.066406 366.816406 221.480469 366.8125 217.558594 C 366.8125 215.839844 366.597656 214.445312 366.351562 214.449219 C 366.109375 214.449219 365.113281 215.589844 364.148438 216.953125 C 360.6875 221.84375 359.058594 223.335938 357.214844 223.335938 C 355.964844 223.335938 355.589844 223.121094 355.917969 222.59375 Z M 378.378906 180.898438 C 405.679688 175.230469 426.160156 157.980469 436.707031 131.746094 C 440.59375 122.0625 441.253906 117.882812 441.207031 103.222656 C 441.148438 93.152344 441.066406 92.144531 439.273438 85.433594 C 436.285156 74.230469 433.214844 67.246094 427.414062 58.449219 C 416.507812 41.921875 394.183594 26.402344 375.710938 22.507812 C 362.992188 19.816406 346.777344 20.082031 335.59375 23.15625 L 332.714844 23.945312 L 335.386719 24.011719 C 336.855469 24.011719 338.449219 24.316406 338.9375 24.625 C 340.789062 25.796875 338.390625 26.632812 331.988281 27.058594 C 318.589844 27.941406 305.875 34.4375 296.660156 45.097656 C 286.671875 56.664062 279.394531 72.269531 276.609375 88.097656 C 275.101562 96.671875 274.78125 114.023438 276.003906 120.71875 C 279.632812 140.53125 291.832031 156.554688 312.777344 169.015625 C 324.621094 176.054688 334.613281 179.636719 349.023438 182.011719 C 349.84375 182.136719 355.292969 182.257812 361.140625 182.257812 C 369.972656 182.257812 372.894531 182.039062 378.378906 180.898438 Z M 328.269531 143.445312 C 323.875 142.984375 316.644531 141.355469 315.371094 140.53125 C 314.632812 140.058594 314.035156 139.277344 314.035156 138.804688 C 314.035156 138.332031 314.632812 137.5625 315.371094 137.089844 C 316.542969 136.335938 317.230469 136.371094 321.152344 137.386719 C 336.261719 141.289062 365.167969 139.574219 386.191406 133.527344 C 398.855469 129.878906 416.0625 122.398438 419.496094 119.039062 C 421.808594 116.78125 423.746094 116.535156 423.746094 118.511719 C 423.746094 121.753906 419.214844 124.855469 405.957031 130.691406 C 385.089844 139.878906 365.160156 143.941406 341.925781 143.75 C 335.554688 143.691406 329.40625 143.558594 328.269531 143.445312 Z M 340.925781 98.496094 C 338.800781 97.007812 337.640625 93.082031 337.652344 87.457031 C 337.652344 84.648438 337.96875 81.210938 338.351562 79.796875 C 339.226562 76.539062 341.832031 73.871094 344.125 73.871094 C 347.410156 73.871094 351.300781 79.863281 351.835938 85.773438 C 352.335938 91.253906 351.605469 94.394531 349.210938 97.039062 C 347.40625 99.035156 346.757812 99.367188 344.644531 99.367188 C 343.285156 99.367188 341.613281 98.976562 340.925781 98.496094 Z M 368.96875 94.011719 C 367.023438 91.703125 366.226562 88.777344 366.226562 83.910156 C 366.226562 74.246094 371.039062 68.546875 375.476562 72.984375 C 378.808594 76.316406 380.074219 83.238281 378.410156 88.96875 C 376.535156 95.410156 372.128906 97.765625 368.96875 94.011719 Z M 324.117188 67.164062 C 324.117188 64.546875 336.328125 53.785156 340.492188 52.746094 C 341.269531 52.546875 342.335938 52.550781 342.863281 52.746094 C 344.246094 53.277344 343.082031 54.507812 338.332031 57.558594 C 336.199219 58.925781 332.394531 61.953125 329.886719 64.285156 C 327.371094 66.609375 325.046875 68.519531 324.714844 68.519531 C 324.382812 68.519531 324.117188 67.898438 324.117188 67.152344 Z M 384.308594 54.570312 C 379.828125 52.851562 372.765625 50.898438 366.964844 49.785156 C 365.265625 49.457031 365.246094 48.023438 366.90625 47.125 C 370.03125 45.453125 384.695312 48.46875 390.441406 51.96875 C 392.554688 53.25 392.878906 55.132812 391.152344 56.050781 C 389.753906 56.804688 390.609375 56.988281 384.292969 54.570312 Z M 586.238281 206.316406 C 582.445312 197.6875 577.46875 192.585938 571.835938 191.5625 C 569.304688 191.09375 569.207031 190.097656 571.621094 189.242188 C 573.636719 188.53125 577.894531 189.597656 580.398438 191.445312 C 585.054688 194.871094 589.207031 202.65625 589.207031 207.96875 C 589.207031 211.582031 588.339844 211.101562 586.238281 206.316406 Z M 586.238281 206.316406 " fill-opacity="1" fill-rule="nonzero"/></g><g transform="matrix(1, 0, 0, 1, 189, 213)"><g clip-path="url(#a17592feb5)"><g fill="#000000" fill-opacity="1"><g transform="translate(18.291663, 192.938783)"><g><path d="M 32.25 -79.8125 C 32.707031 -80.101562 33.113281 -80.296875 33.46875 -80.390625 C 33.832031 -80.492188 34.191406 -80.628906 34.546875 -80.796875 C 35.765625 -81.035156 36.976562 -81.242188 38.1875 -81.421875 C 39.394531 -81.609375 40.617188 -81.707031 41.859375 -81.71875 C 42.828125 -81.8125 43.351562 -81.425781 43.4375 -80.5625 C 43.601562 -80.226562 43.703125 -79.875 43.734375 -79.5 C 43.773438 -79.132812 43.8125 -78.769531 43.84375 -78.40625 C 43.789062 -77.644531 43.800781 -76.898438 43.875 -76.171875 C 43.957031 -75.441406 44.035156 -74.710938 44.109375 -73.984375 C 44.285156 -73.515625 44.398438 -73.003906 44.453125 -72.453125 C 44.503906 -71.898438 44.5625 -71.320312 44.625 -70.71875 C 44.65625 -69.101562 44.71875 -67.5 44.8125 -65.90625 C 44.914062 -64.320312 45 -62.671875 45.0625 -60.953125 C 45.070312 -60.835938 45.078125 -60.75 45.078125 -60.6875 C 45.085938 -60.625 45.097656 -60.53125 45.109375 -60.40625 C 45.035156 -59.90625 44.710938 -59.5 44.140625 -59.1875 C 43.890625 -59.164062 43.613281 -59.109375 43.3125 -59.015625 C 43.019531 -58.929688 42.6875 -58.867188 42.3125 -58.828125 C 41.34375 -58.734375 40.304688 -58.65625 39.203125 -58.59375 C 38.097656 -58.539062 37.054688 -58.46875 36.078125 -58.375 C 35.953125 -58.363281 35.820312 -58.410156 35.6875 -58.515625 C 35.5625 -58.628906 35.367188 -58.738281 35.109375 -58.84375 C 34.921875 -59.445312 34.765625 -60.046875 34.640625 -60.640625 C 34.515625 -61.234375 34.300781 -61.828125 34 -62.421875 C 33.9375 -63.035156 33.597656 -63.3125 32.984375 -63.25 C 32.859375 -63.238281 32.703125 -63.253906 32.515625 -63.296875 C 32.328125 -63.347656 32.113281 -63.359375 31.875 -63.328125 C 30.28125 -63.171875 28.660156 -63.007812 27.015625 -62.84375 C 25.367188 -62.675781 23.695312 -62.503906 22 -62.328125 C 21.5 -62.273438 20.972656 -62.222656 20.421875 -62.171875 C 19.878906 -62.117188 19.3125 -62 18.71875 -61.8125 C 18.226562 -61.757812 17.828125 -61.410156 17.515625 -60.765625 C 17.460938 -60.015625 17.476562 -59.210938 17.5625 -58.359375 C 17.65625 -57.503906 17.742188 -56.648438 17.828125 -55.796875 C 18.335938 -53.265625 18.65625 -50.738281 18.78125 -48.21875 C 18.914062 -45.695312 18.988281 -43.207031 19 -40.75 C 19.039062 -40.382812 19.078125 -40.050781 19.109375 -39.75 C 19.140625 -39.445312 19.164062 -39.171875 19.1875 -38.921875 C 19.457031 -36.234375 19.722656 -33.609375 19.984375 -31.046875 C 20.242188 -28.484375 20.441406 -25.914062 20.578125 -23.34375 C 20.703125 -22.125 20.816406 -20.960938 20.921875 -19.859375 C 21.035156 -18.765625 21.15625 -17.609375 21.28125 -16.390625 C 21.363281 -15.535156 21.488281 -14.929688 21.65625 -14.578125 C 21.695312 -14.085938 22.035156 -13.75 22.671875 -13.5625 C 22.910156 -13.582031 23.21875 -13.578125 23.59375 -13.546875 C 23.96875 -13.523438 24.273438 -13.53125 24.515625 -13.5625 C 26.597656 -13.769531 28.703125 -14.007812 30.828125 -14.28125 C 32.960938 -14.5625 35.003906 -14.800781 36.953125 -15 C 37.191406 -15.03125 37.460938 -15.0625 37.765625 -15.09375 C 38.078125 -15.125 38.289062 -15.144531 38.40625 -15.15625 C 39.394531 -15.25 40.019531 -15.492188 40.28125 -15.890625 C 40.539062 -16.296875 40.6875 -16.929688 40.71875 -17.796875 C 40.632812 -18.648438 40.550781 -19.472656 40.46875 -20.265625 C 40.394531 -21.054688 40.320312 -21.816406 40.25 -22.546875 C 40.226562 -22.671875 40.242188 -22.769531 40.296875 -22.84375 C 40.359375 -22.914062 40.382812 -23.015625 40.375 -23.140625 C 40.582031 -23.523438 41.039062 -23.878906 41.75 -24.203125 C 42.34375 -24.367188 42.941406 -24.515625 43.546875 -24.640625 C 44.160156 -24.765625 44.769531 -24.921875 45.375 -25.109375 C 45.976562 -25.171875 46.644531 -25.207031 47.375 -25.21875 C 48.113281 -25.226562 48.789062 -25.265625 49.40625 -25.328125 C 49.914062 -25.148438 50.234375 -25.066406 50.359375 -25.078125 C 50.765625 -24.734375 51.019531 -24.347656 51.125 -23.921875 C 51.226562 -23.503906 51.304688 -23.050781 51.359375 -22.5625 C 51.585938 -20.25 51.910156 -17.910156 52.328125 -15.546875 C 52.742188 -13.191406 53.019531 -10.785156 53.15625 -8.328125 C 53.195312 -7.960938 53.207031 -7.59375 53.1875 -7.21875 C 53.164062 -6.851562 53.171875 -6.488281 53.203125 -6.125 C 53.066406 -4.988281 52.507812 -4.375 51.53125 -4.28125 C 51.15625 -4.238281 50.785156 -4.195312 50.421875 -4.15625 C 50.066406 -4.125 49.695312 -4.15625 49.3125 -4.25 C 48.820312 -4.195312 48.332031 -4.175781 47.84375 -4.1875 C 47.351562 -4.195312 46.863281 -4.179688 46.375 -4.140625 C 44.519531 -4.066406 42.707031 -3.941406 40.9375 -3.765625 C 39.164062 -3.585938 37.425781 -3.410156 35.71875 -3.234375 C 34.132812 -3.078125 32.578125 -2.953125 31.046875 -2.859375 C 29.523438 -2.765625 27.960938 -2.703125 26.359375 -2.671875 C 24.140625 -2.691406 21.90625 -2.554688 19.65625 -2.265625 C 17.40625 -1.972656 15.128906 -1.585938 12.828125 -1.109375 C 11.609375 -0.859375 10.390625 -0.703125 9.171875 -0.640625 C 7.953125 -0.578125 6.726562 -0.488281 5.5 -0.375 C 4.894531 -0.3125 4.4375 -0.632812 4.125 -1.34375 C 3.945312 -1.8125 3.804688 -2.226562 3.703125 -2.59375 C 3.609375 -2.957031 3.535156 -3.382812 3.484375 -3.875 C 3.273438 -4.707031 3.128906 -5.519531 3.046875 -6.3125 C 2.972656 -7.113281 2.898438 -7.878906 2.828125 -8.609375 C 2.710938 -9.710938 2.847656 -10.460938 3.234375 -10.859375 C 3.628906 -11.265625 4.375 -11.585938 5.46875 -11.828125 C 5.957031 -11.867188 6.441406 -11.914062 6.921875 -11.96875 C 7.410156 -12.019531 7.894531 -12.132812 8.375 -12.3125 C 9.113281 -12.382812 9.550781 -12.859375 9.6875 -13.734375 C 9.65625 -14.109375 9.625 -14.445312 9.59375 -14.75 C 9.5625 -15.050781 9.523438 -15.382812 9.484375 -15.75 C 9.296875 -17.582031 9.082031 -19.410156 8.84375 -21.234375 C 8.601562 -23.066406 8.390625 -24.894531 8.203125 -26.71875 C 7.972656 -29.03125 7.738281 -31.347656 7.5 -33.671875 C 7.269531 -35.992188 7.035156 -38.3125 6.796875 -40.625 C 6.734375 -41.238281 6.695312 -41.882812 6.6875 -42.5625 C 6.675781 -43.238281 6.59375 -43.816406 6.4375 -44.296875 C 6.039062 -46.972656 5.769531 -49.59375 5.625 -52.15625 C 5.488281 -54.726562 5.351562 -57.304688 5.21875 -59.890625 C 5.195312 -60.128906 5.175781 -60.335938 5.15625 -60.515625 C 5.132812 -60.703125 5.117188 -60.851562 5.109375 -60.96875 C 5.242188 -63.332031 5.222656 -65.675781 5.046875 -68 C 4.867188 -70.332031 4.609375 -72.648438 4.265625 -74.953125 C 4.203125 -75.566406 4.148438 -76.085938 4.109375 -76.515625 C 4.066406 -76.941406 4.019531 -77.398438 3.96875 -77.890625 C 3.78125 -79.710938 3.597656 -81.507812 3.421875 -83.28125 C 3.242188 -85.050781 3.0625 -86.847656 2.875 -88.671875 C 2.738281 -90.023438 2.570312 -91.335938 2.375 -92.609375 C 2.1875 -93.878906 1.96875 -95.117188 1.71875 -96.328125 C 1.375 -98.515625 1.085938 -100.707031 0.859375 -102.90625 C 0.640625 -105.101562 0.546875 -107.316406 0.578125 -109.546875 C 0.503906 -110.265625 0.460938 -110.960938 0.453125 -111.640625 C 0.453125 -112.328125 0.421875 -112.972656 0.359375 -113.578125 C 0.210938 -115.046875 -0.46875 -115.71875 -1.6875 -115.59375 C -2.175781 -115.539062 -2.722656 -115.484375 -3.328125 -115.421875 C -3.941406 -115.359375 -4.566406 -115.351562 -5.203125 -115.40625 C -5.816406 -115.351562 -6.25 -115.375 -6.5 -115.46875 C -7.351562 -115.382812 -7.816406 -115.707031 -7.890625 -116.4375 C -7.910156 -116.6875 -7.960938 -116.898438 -8.046875 -117.078125 C -8.128906 -117.253906 -8.175781 -117.40625 -8.1875 -117.53125 C -8.300781 -118.625 -8.414062 -119.75 -8.53125 -120.90625 C -8.644531 -122.070312 -8.695312 -123.207031 -8.6875 -124.3125 C -8.707031 -124.550781 -8.726562 -124.789062 -8.75 -125.03125 C -8.78125 -125.28125 -8.804688 -125.53125 -8.828125 -125.78125 C -8.703125 -127.019531 -8.15625 -127.691406 -7.1875 -127.796875 C -6.582031 -127.972656 -6.007812 -128.117188 -5.46875 -128.234375 C -4.925781 -128.347656 -4.40625 -128.367188 -3.90625 -128.296875 C -2.3125 -128.335938 -0.84375 -128.484375 0.5 -128.734375 C 2.769531 -129.222656 4.910156 -129.382812 6.921875 -129.21875 C 8.640625 -129.269531 10.320312 -129.347656 11.96875 -129.453125 C 13.613281 -129.554688 15.226562 -129.75 16.8125 -130.03125 C 18.625 -130.34375 20.476562 -130.5625 22.375 -130.6875 C 24.28125 -130.8125 26.210938 -130.972656 28.171875 -131.171875 C 29.140625 -131.273438 30.078125 -131.367188 30.984375 -131.453125 C 31.898438 -131.546875 32.785156 -131.703125 33.640625 -131.921875 C 34.242188 -132.097656 34.910156 -132.222656 35.640625 -132.296875 C 36.367188 -132.367188 37.035156 -132.4375 37.640625 -132.5 C 39.109375 -132.644531 39.910156 -132.050781 40.046875 -130.71875 C 40.128906 -129.851562 40.222656 -128.898438 40.328125 -127.859375 C 40.429688 -126.828125 40.597656 -125.832031 40.828125 -124.875 C 40.960938 -123.539062 41.132812 -122.140625 41.34375 -120.671875 C 41.550781 -119.210938 41.722656 -117.8125 41.859375 -116.46875 C 41.941406 -115.613281 41.695312 -114.976562 41.125 -114.5625 C 39.789062 -114.289062 38.363281 -114.046875 36.84375 -113.828125 C 35.320312 -113.617188 33.84375 -113.378906 32.40625 -113.109375 C 32.25 -113.335938 32.070312 -113.535156 31.875 -113.703125 C 31.675781 -113.867188 31.566406 -114.015625 31.546875 -114.140625 C 31.503906 -114.628906 31.457031 -115.113281 31.40625 -115.59375 C 31.351562 -116.082031 31.242188 -116.566406 31.078125 -117.046875 C 31.046875 -117.296875 31.015625 -117.570312 30.984375 -117.875 C 30.953125 -118.1875 30.921875 -118.523438 30.890625 -118.890625 C 30.441406 -119.578125 29.976562 -119.894531 29.5 -119.84375 C 29.238281 -119.945312 28.863281 -119.972656 28.375 -119.921875 C 26.925781 -119.648438 25.46875 -119.441406 24 -119.296875 C 22.539062 -119.148438 21.019531 -118.992188 19.4375 -118.828125 C 18.582031 -118.617188 17.757812 -118.441406 16.96875 -118.296875 C 16.1875 -118.160156 15.316406 -117.976562 14.359375 -117.75 C 13.617188 -117.675781 13.289062 -117.21875 13.375 -116.375 C 13.425781 -115.882812 13.476562 -115.363281 13.53125 -114.8125 C 13.59375 -114.269531 13.597656 -113.6875 13.546875 -113.0625 C 13.515625 -109.601562 13.664062 -106.195312 14 -102.84375 C 14.34375 -99.488281 14.625 -96.15625 14.84375 -92.84375 C 14.925781 -91.988281 15.007812 -91.164062 15.09375 -90.375 C 15.175781 -89.582031 15.128906 -88.8125 14.953125 -88.0625 C 14.972656 -87.8125 14.960938 -87.5625 14.921875 -87.3125 C 14.890625 -87.0625 14.882812 -86.8125 14.90625 -86.5625 C 15.09375 -84.738281 15.273438 -82.941406 15.453125 -81.171875 C 15.628906 -79.398438 15.8125 -77.601562 16 -75.78125 C 16.007812 -75.65625 16.050781 -75.5625 16.125 -75.5 C 16.195312 -75.445312 16.242188 -75.300781 16.265625 -75.0625 C 16.566406 -74.59375 16.96875 -74.328125 17.46875 -74.265625 C 17.84375 -74.171875 18.238281 -74.144531 18.65625 -74.1875 C 19.082031 -74.238281 19.539062 -74.285156 20.03125 -74.328125 C 21.5 -74.484375 22.96875 -74.601562 24.4375 -74.6875 C 25.90625 -74.769531 27.382812 -74.765625 28.875 -74.671875 C 29.257812 -74.585938 29.664062 -74.566406 30.09375 -74.609375 C 30.519531 -74.648438 30.976562 -74.695312 31.46875 -74.75 C 32.070312 -74.8125 32.335938 -75.207031 32.265625 -75.9375 C 32.347656 -76.3125 32.367188 -76.679688 32.328125 -77.046875 C 32.296875 -77.421875 32.257812 -77.789062 32.21875 -78.15625 C 32.195312 -78.394531 32.203125 -78.640625 32.234375 -78.890625 C 32.273438 -79.140625 32.28125 -79.445312 32.25 -79.8125 Z M 32.25 -79.8125 "/></g></g></g><g fill="#000000" fill-opacity="1"><g transform="translate(75.587522, 187.146964)"><g><path d="M 49.890625 -7.625 C 49.460938 -6.96875 48.757812 -6.585938 47.78125 -6.484375 C 46.9375 -6.398438 46.117188 -6.316406 45.328125 -6.234375 C 44.535156 -6.160156 43.769531 -6.082031 43.03125 -6 C 42.28125 -6.050781 41.742188 -6.492188 41.421875 -7.328125 C 40.953125 -8.265625 40.519531 -9.175781 40.125 -10.0625 C 39.726562 -10.945312 39.359375 -11.863281 39.015625 -12.8125 C 38.390625 -14.101562 37.789062 -15.429688 37.21875 -16.796875 C 36.65625 -18.160156 36.003906 -19.476562 35.265625 -20.75 C 34.203125 -22.613281 33.296875 -24.523438 32.546875 -26.484375 C 31.796875 -28.453125 31.007812 -30.4375 30.1875 -32.4375 C 30.007812 -32.914062 29.832031 -33.425781 29.65625 -33.96875 C 29.476562 -34.507812 29.242188 -35.003906 28.953125 -35.453125 C 28.296875 -37.128906 27.582031 -38.726562 26.8125 -40.25 C 26.039062 -41.769531 25.273438 -43.289062 24.515625 -44.8125 C 24.316406 -45.539062 24.054688 -46.253906 23.734375 -46.953125 C 23.421875 -47.660156 23.109375 -48.3125 22.796875 -48.90625 C 22.273438 -49.101562 21.953125 -49.195312 21.828125 -49.1875 C 21.722656 -49.050781 21.609375 -48.972656 21.484375 -48.953125 C 21.367188 -48.941406 21.203125 -48.804688 20.984375 -48.546875 C 20.960938 -47.546875 21.03125 -46.53125 21.1875 -45.5 C 21.351562 -44.46875 21.488281 -43.46875 21.59375 -42.5 C 21.738281 -41.039062 21.882812 -39.578125 22.03125 -38.109375 C 22.175781 -36.640625 22.378906 -35.242188 22.640625 -33.921875 C 22.753906 -32.816406 22.894531 -31.742188 23.0625 -30.703125 C 23.226562 -29.671875 23.363281 -28.671875 23.46875 -27.703125 C 23.632812 -25.992188 23.773438 -24.25 23.890625 -22.46875 C 24.015625 -20.695312 24.097656 -18.953125 24.140625 -17.234375 C 24.179688 -16.867188 24.21875 -16.503906 24.25 -16.140625 C 24.289062 -15.773438 24.328125 -15.410156 24.359375 -15.046875 C 24.992188 -14.859375 25.5625 -14.753906 26.0625 -14.734375 C 26.5625 -14.722656 27.0625 -14.6875 27.5625 -14.625 C 28.28125 -14.695312 28.832031 -14.691406 29.21875 -14.609375 C 29.582031 -14.640625 30.023438 -14.554688 30.546875 -14.359375 C 30.992188 -12.429688 31.363281 -10.585938 31.65625 -8.828125 C 31.945312 -7.078125 31.890625 -5.195312 31.484375 -3.1875 C 31.367188 -3.175781 31.1875 -3.125 30.9375 -3.03125 C 30.695312 -2.945312 30.457031 -2.890625 30.21875 -2.859375 C 26.5625 -2.492188 22.867188 -2.125 19.140625 -1.75 C 15.421875 -1.375 11.664062 -0.992188 7.875 -0.609375 C 7.757812 -0.597656 7.578125 -0.578125 7.328125 -0.546875 C 7.085938 -0.523438 6.847656 -0.503906 6.609375 -0.484375 C 6.472656 -0.585938 6.304688 -0.691406 6.109375 -0.796875 C 5.921875 -0.910156 5.691406 -1.015625 5.421875 -1.109375 C 5.398438 -1.359375 5.34375 -1.597656 5.25 -1.828125 C 5.164062 -2.054688 5.113281 -2.296875 5.09375 -2.546875 C 4.988281 -3.523438 4.890625 -4.46875 4.796875 -5.375 C 4.710938 -6.289062 4.617188 -7.238281 4.515625 -8.21875 C 4.390625 -9.4375 4.53125 -10.554688 4.9375 -11.578125 C 6.082031 -12.316406 7.296875 -12.75 8.578125 -12.875 C 9.867188 -13.007812 11.175781 -13.269531 12.5 -13.65625 C 12.46875 -13.894531 12.503906 -14.113281 12.609375 -14.3125 C 12.710938 -14.507812 12.757812 -14.671875 12.75 -14.796875 C 12.820312 -15.160156 12.816406 -15.769531 12.734375 -16.625 C 12.410156 -19.789062 12.082031 -22.992188 11.75 -26.234375 C 11.425781 -29.472656 11.039062 -32.734375 10.59375 -36.015625 C 10.5 -36.992188 10.429688 -37.972656 10.390625 -38.953125 C 10.347656 -39.929688 10.164062 -40.835938 9.84375 -41.671875 C 9.695312 -41.910156 9.609375 -42.210938 9.578125 -42.578125 C 9.328125 -45.015625 9.050781 -47.421875 8.75 -49.796875 C 8.445312 -52.171875 8.113281 -54.570312 7.75 -57 C 7.675781 -57.71875 7.628906 -58.476562 7.609375 -59.28125 C 7.585938 -60.09375 7.53125 -60.925781 7.4375 -61.78125 C 7.21875 -65.207031 6.9375 -68.628906 6.59375 -72.046875 C 6.25 -75.460938 5.90625 -78.882812 5.5625 -82.3125 C 5.5 -82.90625 5.460938 -83.507812 5.453125 -84.125 C 5.453125 -84.75 5.484375 -85.367188 5.546875 -85.984375 C 5.503906 -86.347656 5.441406 -86.617188 5.359375 -86.796875 C 5.285156 -86.984375 4.921875 -87.289062 4.265625 -87.71875 C 2.785156 -87.695312 1.316406 -87.578125 -0.140625 -87.359375 C -1.597656 -87.148438 -3.125 -87.03125 -4.71875 -87 C -4.863281 -87.226562 -4.945312 -87.429688 -4.96875 -87.609375 C -4.988281 -87.785156 -5.066406 -87.929688 -5.203125 -88.046875 C -5.210938 -88.171875 -5.226562 -88.320312 -5.25 -88.5 C -5.269531 -88.6875 -5.285156 -88.84375 -5.296875 -88.96875 C -5.179688 -90.332031 -5.222656 -91.679688 -5.421875 -93.015625 C -5.617188 -94.359375 -5.71875 -95.640625 -5.71875 -96.859375 C -5.738281 -97.109375 -5.757812 -97.351562 -5.78125 -97.59375 C -5.8125 -97.84375 -5.832031 -98.03125 -5.84375 -98.15625 C -5.300781 -98.832031 -4.414062 -99.234375 -3.1875 -99.359375 C -0.539062 -99.867188 2.078125 -100.132812 4.671875 -100.15625 C 5.648438 -100.25 6.628906 -100.3125 7.609375 -100.34375 C 8.597656 -100.382812 9.582031 -100.394531 10.5625 -100.375 C 11.050781 -100.414062 11.539062 -100.429688 12.03125 -100.421875 C 12.53125 -100.410156 13.035156 -100.3125 13.546875 -100.125 C 14.785156 -98.882812 15.796875 -97.441406 16.578125 -95.796875 C 18.929688 -90.859375 21.25 -85.914062 23.53125 -80.96875 C 25.8125 -76.019531 27.898438 -70.929688 29.796875 -65.703125 C 30.148438 -64.503906 30.566406 -63.375 31.046875 -62.3125 C 31.535156 -61.25 32.015625 -60.1875 32.484375 -59.125 C 33.765625 -56.175781 35.054688 -53.132812 36.359375 -50 C 37.671875 -46.875 38.914062 -43.757812 40.09375 -40.65625 C 40.382812 -40.1875 40.644531 -39.6875 40.875 -39.15625 C 41.113281 -38.632812 41.445312 -38.082031 41.875 -37.5 C 42.125 -37.53125 42.367188 -37.554688 42.609375 -37.578125 C 42.859375 -37.609375 43.046875 -37.628906 43.171875 -37.640625 C 43.503906 -37.921875 43.710938 -38.253906 43.796875 -38.640625 C 43.890625 -39.023438 43.972656 -39.40625 44.046875 -39.78125 C 44.578125 -41.925781 45.078125 -44.007812 45.546875 -46.03125 C 46.023438 -48.050781 46.40625 -50.125 46.6875 -52.25 C 46.832031 -53.125 46.988281 -53.9375 47.15625 -54.6875 C 47.332031 -55.445312 47.503906 -56.265625 47.671875 -57.140625 C 47.796875 -58.390625 47.929688 -59.453125 48.078125 -60.328125 C 48.160156 -60.710938 48.238281 -61.117188 48.3125 -61.546875 C 48.394531 -61.984375 48.476562 -62.398438 48.5625 -62.796875 C 49.132812 -64.566406 49.515625 -66.328125 49.703125 -68.078125 C 49.742188 -68.953125 49.847656 -69.765625 50.015625 -70.515625 C 50.179688 -71.265625 50.34375 -72.082031 50.5 -72.96875 C 51.125 -76.601562 51.832031 -80.25 52.625 -83.90625 C 53.425781 -87.570312 54.265625 -91.171875 55.140625 -94.703125 C 55.617188 -96.109375 56.03125 -97.535156 56.375 -98.984375 C 56.71875 -100.441406 57.132812 -101.816406 57.625 -103.109375 C 57.84375 -103.484375 58.023438 -103.832031 58.171875 -104.15625 C 58.328125 -104.488281 58.453125 -104.78125 58.546875 -105.03125 C 59.109375 -105.582031 59.816406 -105.898438 60.671875 -105.984375 C 61.035156 -106.023438 61.429688 -106.066406 61.859375 -106.109375 C 62.285156 -106.148438 62.742188 -106.195312 63.234375 -106.25 C 65.304688 -106.457031 67.441406 -106.671875 69.640625 -106.890625 C 71.835938 -107.109375 73.972656 -107.328125 76.046875 -107.546875 C 76.898438 -107.628906 77.460938 -107.5 77.734375 -107.15625 C 78.054688 -106.457031 78.425781 -104.957031 78.84375 -102.65625 C 79.257812 -100.351562 79.507812 -98.773438 79.59375 -97.921875 C 79.613281 -97.796875 79.597656 -97.640625 79.546875 -97.453125 C 79.503906 -97.265625 79.488281 -97.109375 79.5 -96.984375 C 79.1875 -96.453125 78.664062 -96.148438 77.9375 -96.078125 C 76.832031 -95.972656 75.757812 -95.867188 74.71875 -95.765625 C 73.6875 -95.660156 72.6875 -95.554688 71.71875 -95.453125 C 70.613281 -95.335938 69.835938 -95.078125 69.390625 -94.671875 C 69.160156 -94.523438 69.03125 -94.296875 69 -93.984375 C 68.976562 -93.671875 68.921875 -93.320312 68.828125 -92.9375 C 68.835938 -92.820312 68.859375 -92.613281 68.890625 -92.3125 C 68.921875 -92.007812 68.953125 -91.734375 68.984375 -91.484375 C 69.078125 -90.503906 69.175781 -89.492188 69.28125 -88.453125 C 69.382812 -87.421875 69.488281 -86.421875 69.59375 -85.453125 C 69.925781 -82.148438 70.289062 -78.820312 70.6875 -75.46875 C 71.09375 -72.125 71.582031 -68.8125 72.15625 -65.53125 C 72.207031 -65.039062 72.253906 -64.582031 72.296875 -64.15625 C 72.335938 -63.738281 72.382812 -63.28125 72.4375 -62.78125 C 72.632812 -60.832031 72.867188 -58.796875 73.140625 -56.671875 C 73.410156 -54.546875 73.648438 -52.445312 73.859375 -50.375 C 73.960938 -49.40625 74.066406 -48.367188 74.171875 -47.265625 C 74.285156 -46.171875 74.335938 -45.117188 74.328125 -44.109375 C 74.429688 -43.015625 74.566406 -41.925781 74.734375 -40.84375 C 74.898438 -39.757812 75.035156 -38.722656 75.140625 -37.734375 C 75.492188 -35.429688 75.785156 -33.148438 76.015625 -30.890625 C 76.242188 -28.640625 76.351562 -26.398438 76.34375 -24.171875 C 76.257812 -23.671875 76.273438 -23.144531 76.390625 -22.59375 C 76.515625 -22.050781 76.601562 -21.539062 76.65625 -21.0625 C 76.925781 -20.71875 77.222656 -20.5 77.546875 -20.40625 C 77.867188 -20.320312 78.15625 -20.226562 78.40625 -20.125 C 79.019531 -20.1875 79.628906 -20.25 80.234375 -20.3125 C 80.847656 -20.375 81.460938 -20.4375 82.078125 -20.5 C 82.671875 -20.5625 83.171875 -20.425781 83.578125 -20.09375 C 83.859375 -19.75 83.992188 -19.332031 83.984375 -18.84375 C 83.972656 -18.351562 83.929688 -17.851562 83.859375 -17.34375 C 83.816406 -16.488281 83.835938 -15.628906 83.921875 -14.765625 C 84.015625 -13.910156 84.109375 -13 84.203125 -12.03125 C 84.253906 -11.539062 84.304688 -11.050781 84.359375 -10.5625 C 84.410156 -10.070312 84.394531 -9.578125 84.3125 -9.078125 C 84.21875 -8.828125 84.023438 -8.65625 83.734375 -8.5625 C 83.441406 -8.46875 83.175781 -8.34375 82.9375 -8.1875 C 82.8125 -8.175781 82.65625 -8.160156 82.46875 -8.140625 C 82.289062 -8.128906 82.078125 -8.109375 81.828125 -8.078125 C 78.421875 -7.734375 75.003906 -7.390625 71.578125 -7.046875 C 68.160156 -6.703125 64.75 -6.359375 61.34375 -6.015625 C 61.09375 -5.984375 60.8125 -5.953125 60.5 -5.921875 C 60.195312 -5.890625 59.925781 -5.863281 59.6875 -5.84375 C 58.832031 -5.757812 58.238281 -6.191406 57.90625 -7.140625 C 57.875 -7.378906 57.816406 -7.585938 57.734375 -7.765625 C 57.660156 -7.941406 57.617188 -8.09375 57.609375 -8.21875 C 57.617188 -9.332031 57.5625 -10.46875 57.4375 -11.625 C 57.320312 -12.789062 57.210938 -13.921875 57.109375 -15.015625 C 57.054688 -15.503906 57.078125 -15.878906 57.171875 -16.140625 C 57.222656 -16.878906 57.609375 -17.347656 58.328125 -17.546875 C 58.546875 -17.691406 58.960938 -17.796875 59.578125 -17.859375 C 60.429688 -18.054688 61.25 -18.226562 62.03125 -18.375 C 62.820312 -18.519531 63.644531 -18.632812 64.5 -18.71875 C 64.5 -18.71875 64.601562 -18.859375 64.8125 -19.140625 C 65.007812 -19.648438 65.09375 -20.023438 65.0625 -20.265625 C 64.59375 -24.898438 64.117188 -29.566406 63.640625 -34.265625 C 63.171875 -38.960938 62.703125 -43.628906 62.234375 -48.265625 C 62.085938 -49.734375 61.769531 -51.054688 61.28125 -52.234375 C 60.425781 -52.273438 59.894531 -52.097656 59.6875 -51.703125 C 59.40625 -50.816406 59.175781 -49.992188 59 -49.234375 C 58.46875 -47.210938 57.960938 -45.191406 57.484375 -43.171875 C 57.015625 -41.148438 56.578125 -39.132812 56.171875 -37.125 C 56.023438 -36.113281 55.875 -35.109375 55.71875 -34.109375 C 55.570312 -33.109375 55.367188 -32.101562 55.109375 -31.09375 C 54.679688 -29.082031 54.195312 -27.09375 53.65625 -25.125 C 53.125 -23.164062 52.648438 -21.175781 52.234375 -19.15625 C 51.921875 -17.507812 51.5625 -15.925781 51.15625 -14.40625 C 50.75 -12.894531 50.507812 -11.273438 50.4375 -9.546875 C 50.351562 -9.160156 50.265625 -8.804688 50.171875 -8.484375 C 50.085938 -8.171875 49.992188 -7.882812 49.890625 -7.625 Z M 49.890625 -7.625 "/></g></g></g><g fill="#000000" fill-opacity="1"><g transform="translate(167.846669, 177.820841)"><g><path d="M 22.078125 -44.953125 C 21.878906 -44.554688 21.769531 -44.140625 21.75 -43.703125 C 21.726562 -43.273438 21.738281 -42.878906 21.78125 -42.515625 C 22.164062 -38.734375 22.515625 -34.945312 22.828125 -31.15625 C 23.148438 -27.375 23.507812 -23.523438 23.90625 -19.609375 C 23.976562 -18.878906 24.082031 -18.148438 24.21875 -17.421875 C 24.351562 -16.703125 24.640625 -15.992188 25.078125 -15.296875 C 26.191406 -15.285156 27.296875 -15.335938 28.390625 -15.453125 C 29.492188 -15.566406 30.664062 -15.554688 31.90625 -15.421875 C 32.445312 -14.984375 32.796875 -14.585938 32.953125 -14.234375 C 33.285156 -13.410156 33.59375 -12.519531 33.875 -11.5625 C 34.15625 -10.601562 34.222656 -9.625 34.078125 -8.625 C 34.085938 -8.5 34.101562 -8.347656 34.125 -8.171875 C 34.144531 -7.992188 34.164062 -7.78125 34.1875 -7.53125 C 34.65625 -6.582031 34.710938 -5.414062 34.359375 -4.03125 C 34.035156 -3.5 33.628906 -3.207031 33.140625 -3.15625 C 32.898438 -3.132812 32.628906 -3.109375 32.328125 -3.078125 C 32.023438 -3.046875 31.75 -3.019531 31.5 -3 C 29.675781 -2.8125 27.84375 -2.625 26 -2.4375 C 24.164062 -2.25 22.335938 -2.066406 20.515625 -1.890625 C 19.546875 -1.785156 18.566406 -1.710938 17.578125 -1.671875 C 16.597656 -1.640625 15.617188 -1.578125 14.640625 -1.484375 C 13.785156 -1.515625 12.957031 -1.488281 12.15625 -1.40625 C 11.351562 -1.332031 10.53125 -1.253906 9.6875 -1.171875 C 9.195312 -1.117188 8.675781 -1.0625 8.125 -1 C 7.582031 -0.945312 7.128906 -0.90625 6.765625 -0.875 C 6.109375 -1.175781 5.75 -1.628906 5.6875 -2.234375 C 5.550781 -3.578125 5.410156 -4.976562 5.265625 -6.4375 C 5.117188 -7.90625 4.972656 -9.375 4.828125 -10.84375 C 4.816406 -10.96875 4.832031 -11.09375 4.875 -11.21875 C 4.925781 -11.34375 4.945312 -11.460938 4.9375 -11.578125 C 5.257812 -11.992188 5.601562 -12.21875 5.96875 -12.25 C 6.332031 -12.289062 6.691406 -12.390625 7.046875 -12.546875 C 7.898438 -12.640625 8.75 -12.753906 9.59375 -12.890625 C 10.445312 -13.035156 11.296875 -13.273438 12.140625 -13.609375 C 12.578125 -14.023438 12.765625 -14.539062 12.703125 -15.15625 C 12.679688 -15.394531 12.65625 -15.664062 12.625 -15.96875 C 12.59375 -16.28125 12.570312 -16.492188 12.5625 -16.609375 C 11.4375 -27.722656 10.316406 -38.800781 9.203125 -49.84375 C 8.085938 -60.882812 6.96875 -71.957031 5.84375 -83.0625 C 5.789062 -83.550781 5.742188 -84.007812 5.703125 -84.4375 C 5.660156 -84.863281 5.492188 -85.304688 5.203125 -85.765625 C 4.660156 -86.203125 3.960938 -86.378906 3.109375 -86.296875 C 2.492188 -86.234375 1.878906 -86.171875 1.265625 -86.109375 C 0.660156 -86.046875 0.0507812 -85.984375 -0.5625 -85.921875 C -0.914062 -85.890625 -1.273438 -85.851562 -1.640625 -85.8125 C -2.015625 -85.769531 -2.445312 -85.726562 -2.9375 -85.6875 C -3.207031 -85.90625 -3.59375 -86.113281 -4.09375 -86.3125 C -4.125 -86.5625 -4.171875 -86.710938 -4.234375 -86.765625 C -4.296875 -86.816406 -4.332031 -86.90625 -4.34375 -87.03125 C -4.695312 -87.976562 -4.90625 -88.757812 -4.96875 -89.375 C -5.144531 -89.976562 -5.265625 -90.613281 -5.328125 -91.28125 C -5.398438 -91.945312 -5.460938 -92.523438 -5.515625 -93.015625 C -5.578125 -93.617188 -5.640625 -94.257812 -5.703125 -94.9375 C -5.773438 -95.613281 -5.84375 -96.25 -5.90625 -96.84375 C -6.269531 -98.050781 -5.726562 -98.789062 -4.28125 -99.0625 C -2.101562 -99.519531 0.0820312 -99.859375 2.28125 -100.078125 C 4.476562 -100.304688 6.675781 -100.53125 8.875 -100.75 C 11.914062 -101.0625 14.960938 -101.367188 18.015625 -101.671875 C 21.066406 -101.984375 24.117188 -102.289062 27.171875 -102.59375 C 29.128906 -102.789062 31.015625 -103.015625 32.828125 -103.265625 C 34.648438 -103.515625 36.546875 -103.675781 38.515625 -103.75 C 43.429688 -103.875 47.796875 -102.773438 51.609375 -100.453125 C 54.117188 -98.847656 55.851562 -96.3125 56.8125 -92.84375 C 57.0625 -91.625 57.28125 -90.347656 57.46875 -89.015625 C 57.664062 -87.679688 57.832031 -86.34375 57.96875 -85 C 58.050781 -84.144531 58.132812 -83.320312 58.21875 -82.53125 C 58.300781 -81.738281 58.390625 -80.851562 58.484375 -79.875 C 58.609375 -78.65625 58.738281 -77.375 58.875 -76.03125 C 59.007812 -74.6875 59.023438 -73.335938 58.921875 -71.984375 C 58.898438 -71.109375 58.898438 -70.210938 58.921875 -69.296875 C 58.953125 -68.378906 58.957031 -67.414062 58.9375 -66.40625 C 59.019531 -65.5625 59.015625 -64.671875 58.921875 -63.734375 C 58.835938 -62.804688 58.71875 -61.835938 58.5625 -60.828125 C 58.375 -60.316406 58.300781 -59.882812 58.34375 -59.53125 C 58.332031 -58.289062 58.164062 -57.128906 57.84375 -56.046875 C 57.53125 -54.972656 57.179688 -53.863281 56.796875 -52.71875 C 56.421875 -51.5625 55.59375 -50.675781 54.3125 -50.0625 C 53.351562 -49.71875 52.363281 -49.367188 51.34375 -49.015625 C 50.332031 -48.660156 49.28125 -48.429688 48.1875 -48.328125 C 46.957031 -48.328125 45.671875 -48.257812 44.328125 -48.125 C 42.992188 -47.988281 41.648438 -47.851562 40.296875 -47.71875 C 39.328125 -47.613281 38.328125 -47.476562 37.296875 -47.3125 C 36.265625 -47.144531 35.265625 -46.953125 34.296875 -46.734375 C 33.085938 -46.492188 31.835938 -46.335938 30.546875 -46.265625 C 29.253906 -46.191406 27.941406 -46.085938 26.609375 -45.953125 C 25.753906 -45.867188 24.960938 -45.757812 24.234375 -45.625 C 23.503906 -45.5 22.785156 -45.273438 22.078125 -44.953125 Z M 21.09375 -58.359375 C 21.21875 -58.367188 21.34375 -58.347656 21.46875 -58.296875 C 21.59375 -58.242188 21.71875 -58.226562 21.84375 -58.25 C 24.300781 -58.363281 26.816406 -58.488281 29.390625 -58.625 C 31.960938 -58.757812 34.46875 -59.015625 36.90625 -59.390625 C 37.738281 -59.597656 38.550781 -59.738281 39.34375 -59.8125 C 40.132812 -59.894531 40.894531 -60.039062 41.625 -60.25 C 42.832031 -60.488281 43.953125 -60.96875 44.984375 -61.6875 C 45.828125 -61.882812 46.378906 -62.492188 46.640625 -63.515625 C 46.710938 -64.140625 46.75 -64.726562 46.75 -65.28125 C 46.757812 -65.832031 46.800781 -66.359375 46.875 -66.859375 C 46.78125 -67.835938 46.75 -68.757812 46.78125 -69.625 C 46.8125 -70.5 46.785156 -71.363281 46.703125 -72.21875 C 46.535156 -73.800781 46.375 -75.351562 46.21875 -76.875 C 46.070312 -78.40625 45.914062 -79.960938 45.75 -81.546875 C 45.65625 -82.535156 45.5 -83.476562 45.28125 -84.375 C 45.070312 -85.269531 44.796875 -86.191406 44.453125 -87.140625 C 43.492188 -89.265625 41.851562 -90.207031 39.53125 -89.96875 C 39.40625 -89.957031 39.3125 -89.945312 39.25 -89.9375 C 39.1875 -89.9375 39.15625 -89.9375 39.15625 -89.9375 C 36.113281 -89.625 33.066406 -89.3125 30.015625 -89 C 26.960938 -88.695312 23.910156 -88.394531 20.859375 -88.09375 C 20.609375 -88.0625 20.332031 -88.03125 20.03125 -88 C 19.726562 -87.96875 19.457031 -87.941406 19.21875 -87.921875 C 18.476562 -87.847656 17.898438 -87.476562 17.484375 -86.8125 C 17.523438 -86.457031 17.535156 -86.03125 17.515625 -85.53125 C 17.503906 -85.039062 17.53125 -84.488281 17.59375 -83.875 C 17.875 -79.84375 18.21875 -75.8125 18.625 -71.78125 C 19.03125 -67.75 19.566406 -63.734375 20.234375 -59.734375 C 20.367188 -59.492188 20.476562 -59.257812 20.5625 -59.03125 C 20.65625 -58.800781 20.832031 -58.578125 21.09375 -58.359375 Z M 21.09375 -58.359375 "/></g></g></g><g fill="#000000" fill-opacity="1"><g transform="translate(237.407149, 170.789238)"><g><path d="M 13.3125 -1.890625 C 13.175781 -3.234375 13.035156 -4.609375 12.890625 -6.015625 C 12.753906 -7.421875 12.617188 -8.789062 12.484375 -10.125 C 12.398438 -10.988281 12.644531 -11.570312 13.21875 -11.875 C 14.289062 -12.226562 15.382812 -12.367188 16.5 -12.296875 C 17.625 -12.222656 18.648438 -12.476562 19.578125 -13.0625 C 20.109375 -13.863281 20.316406 -14.816406 20.203125 -15.921875 C 19.992188 -17.984375 19.8125 -20.082031 19.65625 -22.21875 C 19.507812 -24.363281 19.265625 -26.472656 18.921875 -28.546875 C 18.523438 -31.335938 18.21875 -34.109375 18 -36.859375 C 17.78125 -39.609375 17.414062 -42.3125 16.90625 -44.96875 C 16.300781 -48.488281 15.816406 -52.019531 15.453125 -55.5625 C 15.097656 -59.101562 14.75 -62.578125 14.40625 -65.984375 C 14.007812 -69.890625 13.796875 -73.878906 13.765625 -77.953125 C 13.859375 -79.441406 13.828125 -80.914062 13.671875 -82.375 C 13.523438 -83.84375 13.378906 -85.304688 13.234375 -86.765625 C 13.203125 -87.015625 13.144531 -87.226562 13.0625 -87.40625 C 12.988281 -87.582031 12.945312 -87.734375 12.9375 -87.859375 C 12.519531 -88.304688 11.941406 -88.492188 11.203125 -88.421875 C 10.828125 -88.628906 10.40625 -88.585938 9.9375 -88.296875 C 9.195312 -88.222656 8.460938 -88.144531 7.734375 -88.0625 C 7.003906 -87.988281 6.273438 -87.851562 5.546875 -87.65625 C 5.429688 -87.644531 5.257812 -87.5625 5.03125 -87.40625 C 4.8125 -87.257812 4.582031 -87.117188 4.34375 -86.984375 C 4.300781 -86.109375 4.296875 -85.210938 4.328125 -84.296875 C 4.359375 -83.378906 4.300781 -82.414062 4.15625 -81.40625 C 4.039062 -81.28125 3.898438 -81.144531 3.734375 -81 C 3.566406 -80.863281 3.359375 -80.78125 3.109375 -80.75 C 2.878906 -80.601562 2.460938 -80.5 1.859375 -80.4375 C 0.753906 -80.320312 -0.34375 -80.207031 -1.4375 -80.09375 C -2.539062 -79.988281 -3.640625 -79.878906 -4.734375 -79.765625 C -4.984375 -79.742188 -5.234375 -79.75 -5.484375 -79.78125 C -5.734375 -79.820312 -5.976562 -79.832031 -6.21875 -79.8125 C -6.875 -80.238281 -7.242188 -80.878906 -7.328125 -81.734375 C -7.398438 -82.460938 -7.46875 -83.160156 -7.53125 -83.828125 C -7.601562 -84.503906 -7.675781 -85.207031 -7.75 -85.9375 C -7.851562 -86.914062 -7.953125 -87.894531 -8.046875 -88.875 C -8.148438 -89.851562 -8.242188 -90.765625 -8.328125 -91.609375 C -8.273438 -92.359375 -8.253906 -93.097656 -8.265625 -93.828125 C -8.285156 -94.566406 -8.273438 -95.3125 -8.234375 -96.0625 C -8.253906 -96.3125 -8.21875 -96.5625 -8.125 -96.8125 C -8.03125 -97.070312 -7.925781 -97.269531 -7.8125 -97.40625 C -7.269531 -98.070312 -6.445312 -98.460938 -5.34375 -98.578125 C -4.363281 -98.671875 -3.382812 -98.765625 -2.40625 -98.859375 C -1.4375 -98.960938 -0.523438 -99.054688 0.328125 -99.140625 C 1.304688 -99.242188 2.3125 -99.378906 3.34375 -99.546875 C 4.375 -99.710938 5.375 -99.90625 6.34375 -100.125 C 7.070312 -100.207031 7.835938 -100.253906 8.640625 -100.265625 C 9.441406 -100.285156 10.203125 -100.332031 10.921875 -100.40625 C 11.296875 -100.445312 11.695312 -100.457031 12.125 -100.4375 C 12.5625 -100.414062 12.957031 -100.421875 13.3125 -100.453125 C 17.957031 -100.921875 22.65625 -101.394531 27.40625 -101.875 C 32.164062 -102.363281 36.867188 -102.84375 41.515625 -103.3125 C 41.753906 -103.332031 42.054688 -103.359375 42.421875 -103.390625 C 42.796875 -103.429688 43.171875 -103.414062 43.546875 -103.34375 C 43.660156 -103.351562 43.976562 -103.257812 44.5 -103.0625 C 44.507812 -102.9375 44.554688 -102.785156 44.640625 -102.609375 C 44.722656 -102.429688 44.710938 -102.210938 44.609375 -101.953125 C 44.859375 -99.523438 45.109375 -97.054688 45.359375 -94.546875 C 45.609375 -92.046875 45.859375 -89.578125 46.109375 -87.140625 C 46.191406 -86.285156 46.015625 -85.585938 45.578125 -85.046875 C 45.460938 -85.035156 45.316406 -84.988281 45.140625 -84.90625 C 44.960938 -84.820312 44.75 -84.769531 44.5 -84.75 C 43.394531 -84.632812 42.289062 -84.550781 41.1875 -84.5 C 40.082031 -84.457031 38.988281 -84.378906 37.90625 -84.265625 C 36.914062 -84.171875 36.09375 -84.335938 35.4375 -84.765625 C 35.289062 -85.128906 35.195312 -85.488281 35.15625 -85.84375 C 35.113281 -86.207031 35.070312 -86.632812 35.03125 -87.125 C 34.863281 -87.476562 34.789062 -87.835938 34.8125 -88.203125 C 34.84375 -88.578125 34.773438 -88.941406 34.609375 -89.296875 C 34.535156 -90.023438 34.238281 -90.554688 33.71875 -90.890625 C 33.59375 -90.878906 33.4375 -90.890625 33.25 -90.921875 C 33.0625 -90.960938 32.84375 -90.972656 32.59375 -90.953125 C 31.632812 -90.734375 30.632812 -90.570312 29.59375 -90.46875 C 28.5625 -90.363281 27.5625 -90.203125 26.59375 -89.984375 C 26.476562 -89.960938 26.1875 -89.804688 25.71875 -89.515625 C 25.289062 -88.847656 25.128906 -88.03125 25.234375 -87.0625 C 25.398438 -86.582031 25.507812 -86.066406 25.5625 -85.515625 C 25.613281 -84.960938 25.734375 -84.390625 25.921875 -83.796875 C 26.054688 -82.453125 26.195312 -81.046875 26.34375 -79.578125 C 26.5 -78.117188 26.648438 -76.660156 26.796875 -75.203125 C 26.816406 -74.953125 26.804688 -74.703125 26.765625 -74.453125 C 26.734375 -74.203125 26.726562 -73.957031 26.75 -73.71875 C 26.789062 -73.34375 26.800781 -72.972656 26.78125 -72.609375 C 26.757812 -72.242188 26.828125 -71.878906 26.984375 -71.515625 C 27.441406 -69.460938 27.742188 -67.394531 27.890625 -65.3125 C 28.035156 -63.238281 28.148438 -61.160156 28.234375 -59.078125 C 28.203125 -56.972656 28.414062 -54.832031 28.875 -52.65625 C 28.96875 -51.800781 29.09375 -50.890625 29.25 -49.921875 C 29.414062 -48.953125 29.546875 -47.976562 29.640625 -47 C 29.785156 -45.53125 29.929688 -44.066406 30.078125 -42.609375 C 30.234375 -41.148438 30.378906 -39.75 30.515625 -38.40625 C 30.515625 -37.164062 30.570312 -35.96875 30.6875 -34.8125 C 30.800781 -33.65625 30.863281 -32.460938 30.875 -31.234375 C 31.019531 -29.765625 31.171875 -28.265625 31.328125 -26.734375 C 31.484375 -25.210938 31.691406 -23.726562 31.953125 -22.28125 C 32.171875 -21.3125 32.332031 -20.304688 32.4375 -19.265625 C 32.550781 -18.222656 32.65625 -17.21875 32.75 -16.25 C 32.757812 -16.125 32.773438 -15.9375 32.796875 -15.6875 C 32.828125 -15.445312 32.851562 -15.207031 32.875 -14.96875 C 33.582031 -14.175781 34.53125 -13.96875 35.71875 -14.34375 C 36.570312 -14.425781 37.394531 -14.507812 38.1875 -14.59375 C 38.976562 -14.675781 39.675781 -14.75 40.28125 -14.8125 C 41.0625 -14.519531 41.476562 -14.128906 41.53125 -13.640625 C 41.644531 -12.421875 41.757812 -11.257812 41.875 -10.15625 C 41.988281 -9.0625 42.109375 -7.898438 42.234375 -6.671875 C 42.273438 -6.179688 42.25 -5.742188 42.15625 -5.359375 C 42.070312 -4.984375 41.9375 -4.539062 41.75 -4.03125 C 41.300781 -3.738281 40.890625 -3.578125 40.515625 -3.546875 C 39.304688 -3.296875 38.03125 -3.070312 36.6875 -2.875 C 35.351562 -2.675781 34.015625 -2.507812 32.671875 -2.375 C 31.097656 -2.082031 29.546875 -1.890625 28.015625 -1.796875 C 26.484375 -1.710938 24.921875 -1.585938 23.328125 -1.421875 C 22.003906 -1.160156 20.664062 -1.023438 19.3125 -1.015625 C 17.957031 -1.003906 16.601562 -0.992188 15.25 -0.984375 C 14.632812 -0.921875 13.988281 -1.222656 13.3125 -1.890625 Z M 13.3125 -1.890625 "/></g></g></g><g fill="#000000" fill-opacity="1"><g transform="translate(289.211401, 165.552545)"><g><path d="M 42.390625 -92.859375 C 42.234375 -93.085938 41.972656 -93.179688 41.609375 -93.140625 C 41.253906 -93.109375 40.945312 -93.144531 40.6875 -93.25 C 39.945312 -93.175781 39.367188 -93.363281 38.953125 -93.8125 C 38.710938 -95.007812 38.5625 -96.222656 38.5 -97.453125 C 38.4375 -98.679688 38.34375 -99.910156 38.21875 -101.140625 C 38.195312 -101.367188 38.234375 -101.613281 38.328125 -101.875 C 38.429688 -102.132812 38.53125 -102.394531 38.625 -102.65625 C 39.1875 -103.207031 40.015625 -103.535156 41.109375 -103.640625 C 41.484375 -103.679688 41.851562 -103.71875 42.21875 -103.75 C 42.582031 -103.789062 42.953125 -103.832031 43.328125 -103.875 C 44.160156 -104.082031 44.941406 -104.222656 45.671875 -104.296875 C 46.398438 -104.367188 47.191406 -104.503906 48.046875 -104.703125 C 48.285156 -104.734375 48.554688 -104.765625 48.859375 -104.796875 C 49.171875 -104.828125 49.445312 -104.851562 49.6875 -104.875 C 51.394531 -105.050781 53.101562 -105.222656 54.8125 -105.390625 C 56.519531 -105.566406 58.164062 -105.734375 59.75 -105.890625 C 60.125 -105.929688 60.492188 -105.96875 60.859375 -106 C 61.222656 -106.039062 61.601562 -105.894531 62 -105.5625 C 62.007812 -105.4375 62.046875 -105.347656 62.109375 -105.296875 C 62.171875 -105.253906 62.210938 -105.171875 62.234375 -105.046875 C 62.367188 -103.703125 62.503906 -102.328125 62.640625 -100.921875 C 62.785156 -99.515625 62.875 -98.070312 62.90625 -96.59375 C 62.925781 -96.351562 62.894531 -96.101562 62.8125 -95.84375 C 62.6875 -95.832031 62.503906 -95.78125 62.265625 -95.6875 C 62.023438 -95.601562 61.78125 -95.550781 61.53125 -95.53125 C 61.039062 -95.476562 60.492188 -95.421875 59.890625 -95.359375 C 59.285156 -95.296875 58.675781 -95.234375 58.0625 -95.171875 C 57.320312 -95.097656 56.734375 -94.859375 56.296875 -94.453125 C 56.203125 -94.066406 56.082031 -93.679688 55.9375 -93.296875 C 55.789062 -92.921875 55.675781 -92.546875 55.59375 -92.171875 C 55.175781 -90.148438 54.664062 -88.148438 54.0625 -86.171875 C 53.457031 -84.203125 52.828125 -82.203125 52.171875 -80.171875 C 51.722656 -78.640625 51.234375 -77.109375 50.703125 -75.578125 C 50.171875 -74.046875 49.675781 -72.519531 49.21875 -71 C 49.132812 -70.738281 49.078125 -70.453125 49.046875 -70.140625 C 49.015625 -69.828125 48.945312 -69.546875 48.84375 -69.296875 C 47.757812 -66.710938 46.769531 -64.019531 45.875 -61.21875 C 44.988281 -58.414062 44.0625 -55.671875 43.09375 -52.984375 C 42.71875 -51.847656 42.398438 -50.707031 42.140625 -49.5625 C 41.890625 -48.425781 41.632812 -47.289062 41.375 -46.15625 C 41.300781 -45.664062 41.195312 -45.164062 41.0625 -44.65625 C 40.925781 -44.144531 40.757812 -43.632812 40.5625 -43.125 C 40.125 -41.46875 39.890625 -39.585938 39.859375 -37.484375 C 39.898438 -35.765625 40.003906 -34.082031 40.171875 -32.4375 C 40.335938 -30.789062 40.507812 -29.113281 40.6875 -27.40625 C 40.945312 -26.070312 41.144531 -24.734375 41.28125 -23.390625 C 41.414062 -22.046875 41.613281 -20.71875 41.875 -19.40625 C 41.925781 -18.90625 42.035156 -18.414062 42.203125 -17.9375 C 42.367188 -17.46875 42.472656 -17.050781 42.515625 -16.6875 C 42.921875 -16.363281 43.304688 -16.1875 43.671875 -16.15625 C 44.035156 -16.132812 44.414062 -16.078125 44.8125 -15.984375 C 45.300781 -16.035156 45.785156 -16.082031 46.265625 -16.125 C 46.753906 -16.175781 47.242188 -16.226562 47.734375 -16.28125 C 48.585938 -16.363281 49.335938 -16.195312 49.984375 -15.78125 C 50.003906 -15.65625 50.050781 -15.535156 50.125 -15.421875 C 50.195312 -15.316406 50.242188 -15.140625 50.265625 -14.890625 C 50.410156 -13.429688 50.554688 -12 50.703125 -10.59375 C 50.847656 -9.1875 51.054688 -7.757812 51.328125 -6.3125 C 51.335938 -6.1875 51.3125 -6.117188 51.25 -6.109375 C 51.1875 -6.109375 51.164062 -5.984375 51.1875 -5.734375 C 51.082031 -5.597656 50.914062 -5.457031 50.6875 -5.3125 C 50.457031 -5.164062 50.222656 -5.078125 49.984375 -5.046875 C 49.742188 -4.898438 49.46875 -4.84375 49.15625 -4.875 C 48.84375 -4.90625 48.566406 -4.910156 48.328125 -4.890625 C 44.910156 -4.535156 41.460938 -4.179688 37.984375 -3.828125 C 34.503906 -3.484375 30.992188 -3.132812 27.453125 -2.78125 C 26.960938 -2.726562 26.535156 -2.679688 26.171875 -2.640625 C 25.804688 -2.609375 25.429688 -2.695312 25.046875 -2.90625 C 23.804688 -5.375 23.472656 -8.664062 24.046875 -12.78125 C 24.378906 -13.070312 24.753906 -13.265625 25.171875 -13.359375 C 25.597656 -13.460938 26.050781 -13.597656 26.53125 -13.765625 C 26.894531 -13.796875 27.226562 -13.828125 27.53125 -13.859375 C 27.832031 -13.890625 28.171875 -13.925781 28.546875 -13.96875 C 28.898438 -14.125 29.550781 -14.378906 30.5 -14.734375 C 30.476562 -14.972656 30.488281 -15.1875 30.53125 -15.375 C 30.570312 -15.570312 30.582031 -15.789062 30.5625 -16.03125 C 30.625 -16.65625 30.644531 -17.332031 30.625 -18.0625 C 30.601562 -18.800781 30.5625 -19.472656 30.5 -20.078125 C 30.445312 -20.566406 30.398438 -21.023438 30.359375 -21.453125 C 30.316406 -21.890625 30.269531 -22.351562 30.21875 -22.84375 C 30.082031 -25.414062 29.882812 -27.984375 29.625 -30.546875 C 29.375 -33.117188 29.125 -35.625 28.875 -38.0625 C 29.007812 -39.175781 28.90625 -40.238281 28.5625 -41.25 C 28.21875 -42.257812 27.753906 -43.238281 27.171875 -44.1875 C 26.160156 -45.550781 25.269531 -46.992188 24.5 -48.515625 C 23.726562 -50.035156 22.953125 -51.5625 22.171875 -53.09375 C 22.023438 -53.4375 21.835938 -53.785156 21.609375 -54.140625 C 21.390625 -54.492188 21.140625 -54.835938 20.859375 -55.171875 C 20.535156 -56.003906 20.125 -56.765625 19.625 -57.453125 C 19.125 -58.148438 18.703125 -58.910156 18.359375 -59.734375 C 17.890625 -60.804688 17.421875 -61.84375 16.953125 -62.84375 C 16.484375 -63.84375 15.890625 -64.796875 15.171875 -65.703125 C 13.753906 -67.648438 12.46875 -69.738281 11.3125 -71.96875 C 10.15625 -74.195312 9.09375 -76.429688 8.125 -78.671875 C 7.976562 -79.035156 7.828125 -79.359375 7.671875 -79.640625 C 7.515625 -79.921875 7.363281 -80.179688 7.21875 -80.421875 C 6.613281 -81.484375 6.046875 -82.507812 5.515625 -83.5 C 4.992188 -84.488281 4.429688 -85.507812 3.828125 -86.5625 C 3.503906 -87.269531 3.019531 -87.773438 2.375 -88.078125 C 1.738281 -88.253906 1.054688 -88.273438 0.328125 -88.140625 C -0.398438 -88.015625 -1.066406 -87.921875 -1.671875 -87.859375 C -2.160156 -87.804688 -2.648438 -87.753906 -3.140625 -87.703125 C -3.628906 -87.660156 -4.128906 -87.789062 -4.640625 -88.09375 C -5.078125 -88.675781 -5.328125 -89.273438 -5.390625 -89.890625 C -5.398438 -91.234375 -5.503906 -92.578125 -5.703125 -93.921875 C -5.898438 -95.265625 -5.878906 -96.617188 -5.640625 -97.984375 C -5.429688 -98.265625 -5.09375 -98.484375 -4.625 -98.640625 C -4.5 -98.660156 -4.40625 -98.671875 -4.34375 -98.671875 C -4.28125 -98.679688 -4.1875 -98.691406 -4.0625 -98.703125 C -1.382812 -99.097656 1.257812 -99.425781 3.875 -99.6875 C 6.5 -99.957031 9.148438 -100.289062 11.828125 -100.6875 C 12.679688 -100.769531 13.539062 -100.789062 14.40625 -100.75 C 15.269531 -100.71875 16.128906 -100.742188 16.984375 -100.828125 C 17.722656 -100.898438 18.304688 -100.65625 18.734375 -100.09375 C 19.015625 -99.738281 19.203125 -99.078125 19.296875 -98.109375 C 19.378906 -97.253906 19.429688 -96.425781 19.453125 -95.625 C 19.484375 -94.820312 19.539062 -94 19.625 -93.15625 C 19.738281 -92.050781 19.519531 -91.160156 18.96875 -90.484375 C 18.726562 -90.335938 18.425781 -90.21875 18.0625 -90.125 C 17.707031 -90.03125 17.363281 -89.84375 17.03125 -89.5625 C 16.945312 -89.0625 16.925781 -88.597656 16.96875 -88.171875 C 17.007812 -87.742188 17.113281 -87.347656 17.28125 -86.984375 C 17.570312 -86.523438 17.863281 -86.03125 18.15625 -85.5 C 18.457031 -84.976562 18.703125 -84.414062 18.890625 -83.8125 C 20.523438 -81.03125 21.910156 -78.34375 23.046875 -75.75 C 23.097656 -75.257812 23.265625 -74.78125 23.546875 -74.3125 C 24.296875 -73.03125 24.945312 -71.769531 25.5 -70.53125 C 26.050781 -69.300781 26.644531 -68.035156 27.28125 -66.734375 C 27.757812 -65.671875 28.253906 -64.707031 28.765625 -63.84375 C 29.285156 -62.976562 29.898438 -62.082031 30.609375 -61.15625 C 30.898438 -60.8125 31.492188 -60.441406 32.390625 -60.046875 C 32.984375 -60.234375 33.425781 -60.707031 33.71875 -61.46875 C 33.90625 -62.101562 34.144531 -62.804688 34.4375 -63.578125 C 34.738281 -64.347656 34.914062 -65.039062 34.96875 -65.65625 C 35.476562 -67.9375 36.164062 -70.289062 37.03125 -72.71875 C 37.96875 -75.644531 38.84375 -78.566406 39.65625 -81.484375 C 40.476562 -84.410156 41.226562 -87.320312 41.90625 -90.21875 C 42 -90.601562 42.085938 -90.984375 42.171875 -91.359375 C 42.253906 -91.734375 42.332031 -92.171875 42.40625 -92.671875 C 42.40625 -92.671875 42.398438 -92.734375 42.390625 -92.859375 Z M 42.390625 -92.859375 "/></g></g></g></g></g></svg>